<?xml version="1.0" encoding="utf-8"?>
<!-- Generator: Adobe Illustrator 25.4.1, SVG Export Plug-In . SVG Version: 6.00 Build 0)  -->
<svg version="1.1" id="Шар_1" xmlns="http://www.w3.org/2000/svg" xmlns:xlink="http://www.w3.org/1999/xlink" x="0px" y="0px"
	 viewBox="0 0 800 800" style="enable-background:new 0 0 800 800;" xml:space="preserve">
<style type="text/css">
	.st0{fill:#7E292A;}
</style>
<path class="st0" d="M669.1,211l-91.9-13.8l26.8-35.4L492.9,76.9l-28.3,37.3c-46-27.2-93.4-38.9-128.3-35.3v0
	c-5,0.5-9.7,1.7-14.2,2.8c-14,3.5-24.8,9.9-31.7,18.9l116.9,89.2l-26.1,34.5l22,16.8C285,386.6,149.6,511.2,73.4,679.1l67,50.7
	c143.6-124.7,220.6-279.6,331.4-436.5l20.8,15.9l26.8-35.4l38.3,84.7l57.5,43.5c70.6-29.7,102-82.2,111.6-147.4L669.1,211L669.1,211
	z"/>
</svg>
