<?xml version="1.0" encoding="utf-8"?>
<!-- Generator: Adobe Illustrator 25.4.1, SVG Export Plug-In . SVG Version: 6.00 Build 0)  -->
<svg fill="#4e6d4a" version="1.1" id="Шар_1" xmlns="http://www.w3.org/2000/svg" xmlns:xlink="http://www.w3.org/1999/xlink" x="0px" y="0px"
	 viewBox="0 0 800 800" style="enable-background:new 0 0 800 800;" xml:space="preserve">
<style type="text/css">
	.st0{fill-rule:evenodd;clip-rule:evenodd;}
</style>
<path class="st0" d="M560.4,100.6c-13.3-21.2-38.6-31.7-63-26.1l-84.6,19.4c-8.7,2-17.7,2-26.3,0l-84.6-19.4
	c-24.4-5.6-49.7,4.9-63,26.1l-46.1,73.6c-4.7,7.5-11.1,13.9-18.6,18.6l-73.6,46.1c-21.2,13.3-31.7,38.6-26.1,63l19.4,84.6
	c2,8.7,2,17.7,0,26.3l-19.4,84.6c-5.6,24.4,4.9,49.7,26.1,63l73.6,46.1c7.5,4.7,13.9,11.1,18.6,18.6l46.1,73.6
	c13.3,21.2,38.6,31.7,63,26.1l84.6-19.4c8.7-2,17.7-2,26.3,0l84.6,19.4c24.4,5.6,49.7-4.9,63-26.1l46.1-73.6
	c4.7-7.5,11.1-13.9,18.6-18.6l73.6-46.1c21.2-13.3,31.7-38.6,26.1-63l-19.4-84.6c-2-8.7-2-17.7,0-26.3l19.4-84.6
	c5.6-24.4-4.9-49.7-26.1-63l-73.6-46.1c-7.5-4.7-13.9-11.1-18.6-18.6L560.4,100.6z M536.7,294.7c6.6-11.2,2.9-25.6-8.3-32.2
	c-11.2-6.6-25.6-2.9-32.2,8.3L373.3,479L299,407.9c-9.4-9-24.3-8.7-33.3,0.7c-9,9.4-8.7,24.3,0.7,33.3l95.7,91.7
	c5.2,5,12.4,7.3,19.5,6.3c7.1-1,13.4-5.2,17-11.3L536.7,294.7z"/>
</svg>
