<?xml version="1.0" encoding="utf-8"?>
<!-- Generator: Adobe Illustrator 25.4.1, SVG Export Plug-In . SVG Version: 6.00 Build 0)  -->
<svg version="1.1" id="Шар_1" xmlns="http://www.w3.org/2000/svg" xmlns:xlink="http://www.w3.org/1999/xlink" x="0px" y="0px"
	 viewBox="0 0 24 24" style="enable-background:new 0 0 24 24;" xml:space="preserve">
<style type="text/css">
	.st0{fill:none;stroke:#B0BAC5;stroke-width:2;stroke-linecap:round;stroke-linejoin:round;}
</style>
<path class="st0" d="M6.7,4.9h10.6c1,0,1.8,0.8,1.8,1.8v10.6c0,1-0.8,1.8-1.8,1.8H6.7c-1,0-1.8-0.8-1.8-1.8V6.7
	C4.9,5.7,5.7,4.9,6.7,4.9z"/>
<rect x="9.3" y="9.3" class="st0" width="5.3" height="5.3"/>
<line class="st0" x1="9.3" y1="2.2" x2="9.3" y2="4.9"/>
<line class="st0" x1="14.7" y1="2.2" x2="14.7" y2="4.9"/>
<line class="st0" x1="9.3" y1="19.1" x2="9.3" y2="21.8"/>
<line class="st0" x1="14.7" y1="19.1" x2="14.7" y2="21.8"/>
<line class="st0" x1="19.1" y1="9.3" x2="21.8" y2="9.3"/>
<line class="st0" x1="19.1" y1="13.8" x2="21.8" y2="13.8"/>
<line class="st0" x1="2.2" y1="9.3" x2="4.9" y2="9.3"/>
<line class="st0" x1="2.2" y1="13.8" x2="4.9" y2="13.8"/>
</svg>
